<svg id="visual" viewBox="0 0 900 600" width="900" height="600" xmlns="http://www.w3.org/2000/svg" xmlns:xlink="http://www.w3.org/1999/xlink" version="1.1"><g stroke-width="1" stroke-linejoin="bevel"><path d="M433 301L403.7 305L450 362Z" fill="#dc6581" stroke="#dc6581"></path><path d="M403.7 305L405.7 377L450 362Z" fill="#77437f" stroke="#77437f"></path><path d="M450 362L468.3 338L433 301Z" fill="#8d4883" stroke="#8d4883"></path><path d="M321.7 356L397 388L405.7 377Z" fill="#77437f" stroke="#77437f"></path><path d="M405.7 377L418.7 439L450 362Z" fill="#a34e85" stroke="#a34e85"></path><path d="M487.3 420L501.3 386L450 362Z" fill="#77437f" stroke="#77437f"></path><path d="M450 362L501.3 386L468.3 338Z" fill="#dc6581" stroke="#dc6581"></path><path d="M397 388L418.7 439L405.7 377Z" fill="#b75485" stroke="#b75485"></path><path d="M403.7 305L321.7 356L405.7 377Z" fill="#102e60" stroke="#102e60"></path><path d="M397 388L325.4 440L418.7 439Z" fill="#ca5c84" stroke="#ca5c84"></path><path d="M418.7 439L487.3 420L450 362Z" fill="#2f346a" stroke="#2f346a"></path><path d="M433 301L395.7 228L403.7 305Z" fill="#b75485" stroke="#b75485"></path><path d="M403.7 305L303.4 279L321.7 356Z" fill="#603e7a" stroke="#603e7a"></path><path d="M517.6 242L395.7 228L433 301Z" fill="#ca5c84" stroke="#ca5c84"></path><path d="M517.6 242L433 301L468.3 338Z" fill="#2f346a" stroke="#2f346a"></path><path d="M321.7 356L322.4 387L397 388Z" fill="#603e7a" stroke="#603e7a"></path><path d="M418.7 439L462 463L487.3 420Z" fill="#77437f" stroke="#77437f"></path><path d="M411.7 558L462 463L418.7 439Z" fill="#ca5c84" stroke="#ca5c84"></path><path d="M352.4 217L303.4 279L403.7 305Z" fill="#ec707e" stroke="#ec707e"></path><path d="M321.7 356L237.1 405L322.4 387Z" fill="#b75485" stroke="#b75485"></path><path d="M547.6 249L517.6 242L576.3 292Z" fill="#2f346a" stroke="#2f346a"></path><path d="M373.4 145L352.4 217L395.7 228Z" fill="#a34e85" stroke="#a34e85"></path><path d="M395.7 228L352.4 217L403.7 305Z" fill="#ca5c84" stroke="#ca5c84"></path><path d="M292.1 470L325.4 440L237.1 405Z" fill="#ca5c84" stroke="#ca5c84"></path><path d="M322.4 387L325.4 440L397 388Z" fill="#77437f" stroke="#77437f"></path><path d="M576.3 292L517.6 242L468.3 338Z" fill="#8d4883" stroke="#8d4883"></path><path d="M569.3 395L575.6 328L501.3 386Z" fill="#483973" stroke="#483973"></path><path d="M501.3 386L575.6 328L468.3 338Z" fill="#603e7a" stroke="#603e7a"></path><path d="M569.3 395L501.3 386L566.6 442Z" fill="#102e60" stroke="#102e60"></path><path d="M566.6 442L501.3 386L487.3 420Z" fill="#8d4883" stroke="#8d4883"></path><path d="M352.4 217L290.4 251L303.4 279Z" fill="#2f346a" stroke="#2f346a"></path><path d="M303.4 279L234.9 309L321.7 356Z" fill="#ec707e" stroke="#ec707e"></path><path d="M575.6 328L576.3 292L468.3 338Z" fill="#483973" stroke="#483973"></path><path d="M509 180L448.7 177L517.6 242Z" fill="#8d4883" stroke="#8d4883"></path><path d="M517.6 242L448.7 177L395.7 228Z" fill="#483973" stroke="#483973"></path><path d="M193.1 237L276.1 255L215.1 185Z" fill="#102e60" stroke="#102e60"></path><path d="M290.4 251L276.1 255L303.4 279Z" fill="#dc6581" stroke="#dc6581"></path><path d="M462 463L566.6 442L487.3 420Z" fill="#483973" stroke="#483973"></path><path d="M624.9 290L576.3 292L575.6 328Z" fill="#a34e85" stroke="#a34e85"></path><path d="M520.6 182L517.6 242L547.6 249Z" fill="#8d4883" stroke="#8d4883"></path><path d="M520.6 182L509 180L517.6 242Z" fill="#ec707e" stroke="#ec707e"></path><path d="M575.3 171L520.6 182L547.6 249Z" fill="#ca5c84" stroke="#ca5c84"></path><path d="M276.1 255L244.9 288L303.4 279Z" fill="#483973" stroke="#483973"></path><path d="M283.4 474L292.1 470L237.1 405Z" fill="#b75485" stroke="#b75485"></path><path d="M325.4 440L356.4 534L418.7 439Z" fill="#a34e85" stroke="#a34e85"></path><path d="M244.9 288L234.9 309L303.4 279Z" fill="#483973" stroke="#483973"></path><path d="M624.9 290L605.9 278L576.3 292Z" fill="#102e60" stroke="#102e60"></path><path d="M576.3 292L605.9 278L547.6 249Z" fill="#dc6581" stroke="#dc6581"></path><path d="M624.9 290L575.6 328L675.1 380Z" fill="#a34e85" stroke="#a34e85"></path><path d="M237.1 405L325.4 440L322.4 387Z" fill="#102e60" stroke="#102e60"></path><path d="M292.1 470L356.4 534L325.4 440Z" fill="#8d4883" stroke="#8d4883"></path><path d="M521.3 136L432 140L448.7 177Z" fill="#603e7a" stroke="#603e7a"></path><path d="M448.7 177L373.4 145L395.7 228Z" fill="#2f346a" stroke="#2f346a"></path><path d="M352.4 217L241.1 155L290.4 251Z" fill="#603e7a" stroke="#603e7a"></path><path d="M521.3 136L448.7 177L509 180Z" fill="#8d4883" stroke="#8d4883"></path><path d="M432 140L373.4 145L448.7 177Z" fill="#77437f" stroke="#77437f"></path><path d="M193.1 237L220.9 304L244.9 288Z" fill="#ca5c84" stroke="#ca5c84"></path><path d="M234.9 309L237.1 405L321.7 356Z" fill="#603e7a" stroke="#603e7a"></path><path d="M244.9 288L220.9 304L234.9 309Z" fill="#ca5c84" stroke="#ca5c84"></path><path d="M234.9 309L220.9 304L237.1 405Z" fill="#77437f" stroke="#77437f"></path><path d="M193.1 237L244.9 288L276.1 255Z" fill="#8d4883" stroke="#8d4883"></path><path d="M675.1 380L575.6 328L569.3 395Z" fill="#603e7a" stroke="#603e7a"></path><path d="M575.3 171L521.3 136L520.6 182Z" fill="#8d4883" stroke="#8d4883"></path><path d="M542.3 522L566.6 442L462 463Z" fill="#483973" stroke="#483973"></path><path d="M542.3 522L577.6 476L566.6 442Z" fill="#77437f" stroke="#77437f"></path><path d="M566.6 442L654.9 441L569.3 395Z" fill="#8d4883" stroke="#8d4883"></path><path d="M283.4 474L356.4 534L292.1 470Z" fill="#ec707e" stroke="#ec707e"></path><path d="M432 140L381.7 130L373.4 145Z" fill="#8d4883" stroke="#8d4883"></path><path d="M241.1 155L276.1 255L290.4 251Z" fill="#102e60" stroke="#102e60"></path><path d="M457 581L542.3 522L462 463Z" fill="#dc6581" stroke="#dc6581"></path><path d="M356.4 534L411.7 558L418.7 439Z" fill="#483973" stroke="#483973"></path><path d="M575.3 171L547.6 249L605.9 278Z" fill="#2f346a" stroke="#2f346a"></path><path d="M520.6 182L521.3 136L509 180Z" fill="#ca5c84" stroke="#ca5c84"></path><path d="M432 140L430 96L381.7 130Z" fill="#102e60" stroke="#102e60"></path><path d="M666.9 188L575.3 171L605.9 278Z" fill="#483973" stroke="#483973"></path><path d="M156.6 418L203.1 427L141.9 371Z" fill="#ec707e" stroke="#ec707e"></path><path d="M237.1 405L229.1 489L283.4 474Z" fill="#102e60" stroke="#102e60"></path><path d="M323.7 600L327.4 600L356.4 534Z" fill="#dc6581" stroke="#dc6581"></path><path d="M476 74L430 96L432 140Z" fill="#b75485" stroke="#b75485"></path><path d="M592.6 526L615.9 482L577.6 476Z" fill="#a34e85" stroke="#a34e85"></path><path d="M577.6 476L615.9 482L566.6 442Z" fill="#ca5c84" stroke="#ca5c84"></path><path d="M203.1 427L229.1 489L237.1 405Z" fill="#a34e85" stroke="#a34e85"></path><path d="M400 600L457 581L411.7 558Z" fill="#2f346a" stroke="#2f346a"></path><path d="M400 600L411.7 558L356.4 534Z" fill="#77437f" stroke="#77437f"></path><path d="M411.7 558L457 581L462 463Z" fill="#b75485" stroke="#b75485"></path><path d="M542.3 522L592.6 526L577.6 476Z" fill="#b75485" stroke="#b75485"></path><path d="M317.1 105L352.4 217L373.4 145Z" fill="#a34e85" stroke="#a34e85"></path><path d="M141.9 371L203.1 427L237.1 405Z" fill="#dc6581" stroke="#dc6581"></path><path d="M317.1 105L373.4 145L381.7 130Z" fill="#ca5c84" stroke="#ca5c84"></path><path d="M542.6 600L592.6 526L542.3 522Z" fill="#dc6581" stroke="#dc6581"></path><path d="M688.1 484L654.9 441L615.9 482Z" fill="#8d4883" stroke="#8d4883"></path><path d="M615.9 482L654.9 441L566.6 442Z" fill="#77437f" stroke="#77437f"></path><path d="M347.7 0L317.1 105L381.7 130Z" fill="#ca5c84" stroke="#ca5c84"></path><path d="M654.9 441L675.1 380L569.3 395Z" fill="#483973" stroke="#483973"></path><path d="M624.9 290L666.9 188L605.9 278Z" fill="#77437f" stroke="#77437f"></path><path d="M317.1 105L241.1 155L352.4 217Z" fill="#ca5c84" stroke="#ca5c84"></path><path d="M241.1 155L215.1 185L276.1 255Z" fill="#dc6581" stroke="#dc6581"></path><path d="M327.4 600L400 600L356.4 534Z" fill="#b75485" stroke="#b75485"></path><path d="M654.9 441L681.9 391L675.1 380Z" fill="#483973" stroke="#483973"></path><path d="M675.1 380L687.1 294L624.9 290Z" fill="#102e60" stroke="#102e60"></path><path d="M729.1 323L687.1 294L675.1 380Z" fill="#dc6581" stroke="#dc6581"></path><path d="M575.3 171L591.9 129L521.3 136Z" fill="#a34e85" stroke="#a34e85"></path><path d="M521.3 136L476 74L432 140Z" fill="#77437f" stroke="#77437f"></path><path d="M661.1 171L591.9 129L575.3 171Z" fill="#ca5c84" stroke="#ca5c84"></path><path d="M577.6 0L476 74L521.3 136Z" fill="#ec707e" stroke="#ec707e"></path><path d="M430 96L347.7 0L381.7 130Z" fill="#ca5c84" stroke="#ca5c84"></path><path d="M400 600L483.3 600L457 581Z" fill="#ec707e" stroke="#ec707e"></path><path d="M457 581L483.3 600L542.3 522Z" fill="#a34e85" stroke="#a34e85"></path><path d="M141.9 371L237.1 405L220.9 304Z" fill="#ca5c84" stroke="#ca5c84"></path><path d="M203.1 427L156.6 418L229.1 489Z" fill="#102e60" stroke="#102e60"></path><path d="M323.7 600L356.4 534L300.1 600Z" fill="#2f346a" stroke="#2f346a"></path><path d="M356.4 534L283.4 474L300.1 600Z" fill="#ca5c84" stroke="#ca5c84"></path><path d="M221.9 542L283.4 474L229.1 489Z" fill="#603e7a" stroke="#603e7a"></path><path d="M140.6 360L141.9 371L220.9 304Z" fill="#102e60" stroke="#102e60"></path><path d="M107.3 296L140.6 360L220.9 304Z" fill="#603e7a" stroke="#603e7a"></path><path d="M107.3 296L220.9 304L193.1 237Z" fill="#b75485" stroke="#b75485"></path><path d="M687.1 294L666.9 188L624.9 290Z" fill="#8d4883" stroke="#8d4883"></path><path d="M113.6 510L221.9 542L229.1 489Z" fill="#a34e85" stroke="#a34e85"></path><path d="M483.3 600L542.6 600L542.3 522Z" fill="#ca5c84" stroke="#ca5c84"></path><path d="M681.9 537L688.1 484L615.9 482Z" fill="#102e60" stroke="#102e60"></path><path d="M666.9 188L661.1 171L575.3 171Z" fill="#b75485" stroke="#b75485"></path><path d="M221.9 542L300.1 600L283.4 474Z" fill="#b75485" stroke="#b75485"></path><path d="M654.9 441L741.1 453L681.9 391Z" fill="#77437f" stroke="#77437f"></path><path d="M735.4 337L729.1 323L675.1 380Z" fill="#603e7a" stroke="#603e7a"></path><path d="M681.9 537L615.9 482L592.6 526Z" fill="#8d4883" stroke="#8d4883"></path><path d="M735.4 337L675.1 380L681.9 391Z" fill="#603e7a" stroke="#603e7a"></path><path d="M687.1 294L760.4 206L666.9 188Z" fill="#77437f" stroke="#77437f"></path><path d="M718.4 57L660.9 95L768.1 77Z" fill="#2f346a" stroke="#2f346a"></path><path d="M542.6 600L586.9 600L592.6 526Z" fill="#b75485" stroke="#b75485"></path><path d="M241.1 155L160.9 170L215.1 185Z" fill="#77437f" stroke="#77437f"></path><path d="M215.1 185L160.9 170L193.1 237Z" fill="#483973" stroke="#483973"></path><path d="M203.9 93L160.9 170L241.1 155Z" fill="#8d4883" stroke="#8d4883"></path><path d="M770.4 346L735.4 337L780.7 385Z" fill="#b75485" stroke="#b75485"></path><path d="M660.9 95L591.9 129L661.1 171Z" fill="#483973" stroke="#483973"></path><path d="M160.9 170L148.6 182L193.1 237Z" fill="#ca5c84" stroke="#ca5c84"></path><path d="M109.6 268L107.3 296L193.1 237Z" fill="#a34e85" stroke="#a34e85"></path><path d="M81.6 401L86.6 420L141.9 371Z" fill="#102e60" stroke="#102e60"></path><path d="M141.9 371L86.6 420L156.6 418Z" fill="#dc6581" stroke="#dc6581"></path><path d="M148.6 182L109.6 268L193.1 237Z" fill="#102e60" stroke="#102e60"></path><path d="M160.9 170L145.6 175L148.6 182Z" fill="#8d4883" stroke="#8d4883"></path><path d="M148.6 182L52.3 168L109.6 268Z" fill="#8d4883" stroke="#8d4883"></path><path d="M147.6 64L145.6 175L160.9 170Z" fill="#8d4883" stroke="#8d4883"></path><path d="M660.9 95L628.6 84L591.9 129Z" fill="#ca5c84" stroke="#ca5c84"></path><path d="M577.6 0L523.3 -3L476 74Z" fill="#b75485" stroke="#b75485"></path><path d="M661.1 171L666.9 188L760.4 206Z" fill="#102e60" stroke="#102e60"></path><path d="M660.1 600L681.9 537L592.6 526Z" fill="#dc6581" stroke="#dc6581"></path><path d="M688.1 484L727.1 471L654.9 441Z" fill="#102e60" stroke="#102e60"></path><path d="M317.1 105L203.9 93L241.1 155Z" fill="#603e7a" stroke="#603e7a"></path><path d="M212.9 35L203.9 93L317.1 105Z" fill="#b75485" stroke="#b75485"></path><path d="M113.6 510L201.9 580L221.9 542Z" fill="#77437f" stroke="#77437f"></path><path d="M221.9 542L201.9 580L300.1 600Z" fill="#ec707e" stroke="#ec707e"></path><path d="M113.6 510L229.1 489L156.6 418Z" fill="#603e7a" stroke="#603e7a"></path><path d="M681.9 537L727.1 471L688.1 484Z" fill="#603e7a" stroke="#603e7a"></path><path d="M460.3 0L434.7 0L476 74Z" fill="#dc6581" stroke="#dc6581"></path><path d="M476 74L434.7 0L430 96Z" fill="#603e7a" stroke="#603e7a"></path><path d="M462 0L460.3 0L476 74Z" fill="#77437f" stroke="#77437f"></path><path d="M768.4 495L741.1 453L727.1 471Z" fill="#ca5c84" stroke="#ca5c84"></path><path d="M727.1 471L741.1 453L654.9 441Z" fill="#a34e85" stroke="#a34e85"></path><path d="M523.3 -3L462 0L476 74Z" fill="#77437f" stroke="#77437f"></path><path d="M760.4 206L687.1 294L729.1 323Z" fill="#102e60" stroke="#102e60"></path><path d="M577.6 0L521.3 136L591.9 129Z" fill="#483973" stroke="#483973"></path><path d="M434.7 0L347.7 0L430 96Z" fill="#ca5c84" stroke="#ca5c84"></path><path d="M81.6 401L140.6 360L107.3 296Z" fill="#2f346a" stroke="#2f346a"></path><path d="M81.6 401L141.9 371L140.6 360Z" fill="#2f346a" stroke="#2f346a"></path><path d="M0 372L81.6 401L107.3 296Z" fill="#ec707e" stroke="#ec707e"></path><path d="M780.7 385L735.4 337L681.9 391Z" fill="#dc6581" stroke="#dc6581"></path><path d="M735.4 337L770.4 346L729.1 323Z" fill="#dc6581" stroke="#dc6581"></path><path d="M126.6 600L193.9 600L201.9 580Z" fill="#102e60" stroke="#102e60"></path><path d="M201.9 580L193.9 600L300.1 600Z" fill="#dc6581" stroke="#dc6581"></path><path d="M460.3 0L523.3 -3L434.7 0Z" fill="#77437f" stroke="#77437f"></path><path d="M434.7 0L523.3 -3L347.7 0Z" fill="#603e7a" stroke="#603e7a"></path><path d="M462 0L523.3 -3L460.3 0Z" fill="#a34e85" stroke="#a34e85"></path><path d="M613.6 27L591.9 129L628.6 84Z" fill="#77437f" stroke="#77437f"></path><path d="M586.9 600L660.1 600L592.6 526Z" fill="#603e7a" stroke="#603e7a"></path><path d="M681.9 537L768.4 495L727.1 471Z" fill="#8d4883" stroke="#8d4883"></path><path d="M91.3 464L113.6 510L156.6 418Z" fill="#dc6581" stroke="#dc6581"></path><path d="M80.3 460L91.3 464L86.6 420Z" fill="#ec707e" stroke="#ec707e"></path><path d="M86.6 420L91.3 464L156.6 418Z" fill="#77437f" stroke="#77437f"></path><path d="M523.3 -3L294.1 0L347.7 0Z" fill="#2f346a" stroke="#2f346a"></path><path d="M347.7 0L294.1 0L317.1 105Z" fill="#8d4883" stroke="#8d4883"></path><path d="M741.1 453L780.7 385L681.9 391Z" fill="#ca5c84" stroke="#ca5c84"></path><path d="M800.4 421L780.7 385L741.1 453Z" fill="#77437f" stroke="#77437f"></path><path d="M824.4 215L760.4 206L770.4 346Z" fill="#ec707e" stroke="#ec707e"></path><path d="M770.4 346L760.4 206L729.1 323Z" fill="#2f346a" stroke="#2f346a"></path><path d="M699.1 41L628.6 84L660.9 95Z" fill="#dc6581" stroke="#dc6581"></path><path d="M699.1 41L613.6 27L628.6 84Z" fill="#102e60" stroke="#102e60"></path><path d="M0 401L80.3 460L86.6 420Z" fill="#ec707e" stroke="#ec707e"></path><path d="M91.3 464L104.3 523L113.6 510Z" fill="#8d4883" stroke="#8d4883"></path><path d="M268.4 3L212.9 35L317.1 105Z" fill="#b75485" stroke="#b75485"></path><path d="M203.9 93L147.6 64L160.9 170Z" fill="#2f346a" stroke="#2f346a"></path><path d="M294.1 0L268.4 3L317.1 105Z" fill="#dc6581" stroke="#dc6581"></path><path d="M80.3 460L104.3 523L91.3 464Z" fill="#b75485" stroke="#b75485"></path><path d="M113.6 510L104.3 523L201.9 580Z" fill="#603e7a" stroke="#603e7a"></path><path d="M613.6 27L577.6 0L591.9 129Z" fill="#77437f" stroke="#77437f"></path><path d="M523.3 -3L265.4 0L294.1 0Z" fill="#ca5c84" stroke="#ca5c84"></path><path d="M294.1 0L265.4 0L268.4 3Z" fill="#603e7a" stroke="#603e7a"></path><path d="M268.4 3L265.4 0L212.9 35Z" fill="#b75485" stroke="#b75485"></path><path d="M819.7 554L768.4 495L807.4 600Z" fill="#102e60" stroke="#102e60"></path><path d="M768.4 495L800.4 421L741.1 453Z" fill="#102e60" stroke="#102e60"></path><path d="M780.7 385L874.7 363L770.4 346Z" fill="#dc6581" stroke="#dc6581"></path><path d="M182.6 0L147.6 64L212.9 35Z" fill="#102e60" stroke="#102e60"></path><path d="M212.9 35L147.6 64L203.9 93Z" fill="#77437f" stroke="#77437f"></path><path d="M23.3 237L29.3 274L109.6 268Z" fill="#603e7a" stroke="#603e7a"></path><path d="M109.6 268L29.3 274L107.3 296Z" fill="#8d4883" stroke="#8d4883"></path><path d="M843.7 435L803.7 418L800.4 421Z" fill="#102e60" stroke="#102e60"></path><path d="M800.4 421L803.7 418L780.7 385Z" fill="#dc6581" stroke="#dc6581"></path><path d="M62.3 600L126.6 600L104.3 523Z" fill="#a34e85" stroke="#a34e85"></path><path d="M104.3 523L126.6 600L201.9 580Z" fill="#102e60" stroke="#102e60"></path><path d="M52.3 168L148.6 182L145.6 175Z" fill="#b75485" stroke="#b75485"></path><path d="M81.6 401L0 401L86.6 420Z" fill="#2f346a" stroke="#2f346a"></path><path d="M718.4 57L699.1 41L660.9 95Z" fill="#b75485" stroke="#b75485"></path><path d="M613.6 27L675.9 0L577.6 0Z" fill="#2f346a" stroke="#2f346a"></path><path d="M768.1 77L660.9 95L661.1 171Z" fill="#dc6581" stroke="#dc6581"></path><path d="M147.6 64L52.3 168L145.6 175Z" fill="#102e60" stroke="#102e60"></path><path d="M52.3 168L23.3 237L109.6 268Z" fill="#2f346a" stroke="#2f346a"></path><path d="M29.3 60L0 124L52.3 168Z" fill="#2f346a" stroke="#2f346a"></path><path d="M265.4 0L184.9 0L212.9 35Z" fill="#a34e85" stroke="#a34e85"></path><path d="M523.3 -3L184.9 0L265.4 0Z" fill="#77437f" stroke="#77437f"></path><path d="M523.3 -3L182.6 0L184.9 0Z" fill="#8d4883" stroke="#8d4883"></path><path d="M184.9 0L182.6 0L212.9 35Z" fill="#2f346a" stroke="#2f346a"></path><path d="M819.7 554L804.4 499L768.4 495Z" fill="#b75485" stroke="#b75485"></path><path d="M768.4 495L804.4 499L800.4 421Z" fill="#8d4883" stroke="#8d4883"></path><path d="M900 264L824.4 215L770.4 346Z" fill="#2f346a" stroke="#2f346a"></path><path d="M794.7 110L768.1 77L661.1 171Z" fill="#dc6581" stroke="#dc6581"></path><path d="M874.7 363L780.7 385L803.7 418Z" fill="#dc6581" stroke="#dc6581"></path><path d="M682.1 0L675.9 0L699.1 41Z" fill="#ec707e" stroke="#ec707e"></path><path d="M699.1 41L675.9 0L613.6 27Z" fill="#603e7a" stroke="#603e7a"></path><path d="M577.6 0L675.9 0L523.3 -3Z" fill="#ec707e" stroke="#ec707e"></path><path d="M29.3 274L0 372L107.3 296Z" fill="#77437f" stroke="#77437f"></path><path d="M0 514L62.3 600L104.3 523Z" fill="#8d4883" stroke="#8d4883"></path><path d="M0 266L0 372L29.3 274Z" fill="#b75485" stroke="#b75485"></path><path d="M788.4 12L699.1 41L718.4 57Z" fill="#102e60" stroke="#102e60"></path><path d="M788.4 12L682.1 0L699.1 41Z" fill="#a34e85" stroke="#a34e85"></path><path d="M675.9 0L682.1 0L523.3 -3Z" fill="#483973" stroke="#483973"></path><path d="M0 372L0 401L81.6 401Z" fill="#603e7a" stroke="#603e7a"></path><path d="M0 227L0 266L23.3 237Z" fill="#ca5c84" stroke="#ca5c84"></path><path d="M23.3 237L0 266L29.3 274Z" fill="#b75485" stroke="#b75485"></path><path d="M794.7 110L661.1 171L760.4 206Z" fill="#77437f" stroke="#77437f"></path><path d="M804.4 499L843.7 435L800.4 421Z" fill="#dc6581" stroke="#dc6581"></path><path d="M824.4 215L794.7 110L760.4 206Z" fill="#483973" stroke="#483973"></path><path d="M52.3 168L0 227L23.3 237Z" fill="#102e60" stroke="#102e60"></path><path d="M0 124L0 227L52.3 168Z" fill="#b75485" stroke="#b75485"></path><path d="M0 508L104.3 523L80.3 460Z" fill="#483973" stroke="#483973"></path><path d="M807.4 600L768.4 495L681.9 537Z" fill="#8d4883" stroke="#8d4883"></path><path d="M900 441L900 433L843.7 435Z" fill="#ec707e" stroke="#ec707e"></path><path d="M900 330L874.7 363L900 433Z" fill="#ca5c84" stroke="#ca5c84"></path><path d="M843.7 435L874.7 363L803.7 418Z" fill="#dc6581" stroke="#dc6581"></path><path d="M900 113L823.7 57L794.7 110Z" fill="#77437f" stroke="#77437f"></path><path d="M0 401L0 508L80.3 460Z" fill="#102e60" stroke="#102e60"></path><path d="M0 508L0 514L104.3 523Z" fill="#ca5c84" stroke="#ca5c84"></path><path d="M182.6 0L97.3 12L147.6 64Z" fill="#dc6581" stroke="#dc6581"></path><path d="M660.1 600L807.4 600L681.9 537Z" fill="#102e60" stroke="#102e60"></path><path d="M900 433L874.7 363L843.7 435Z" fill="#ec707e" stroke="#ec707e"></path><path d="M29.3 60L52.3 168L147.6 64Z" fill="#ca5c84" stroke="#ca5c84"></path><path d="M843.7 435L900 492L900 441Z" fill="#ca5c84" stroke="#ca5c84"></path><path d="M874.7 363L900 330L770.4 346Z" fill="#483973" stroke="#483973"></path><path d="M97.3 12L29.3 60L147.6 64Z" fill="#ec707e" stroke="#ec707e"></path><path d="M900 330L900 264L770.4 346Z" fill="#77437f" stroke="#77437f"></path><path d="M900 264L900 259L824.4 215Z" fill="#8d4883" stroke="#8d4883"></path><path d="M843.7 435L804.4 499L900 492Z" fill="#2f346a" stroke="#2f346a"></path><path d="M900 492L804.4 499L819.7 554Z" fill="#a34e85" stroke="#a34e85"></path><path d="M900 136L794.7 110L824.4 215Z" fill="#b75485" stroke="#b75485"></path><path d="M794.7 110L823.7 57L768.1 77Z" fill="#2f346a" stroke="#2f346a"></path><path d="M768.1 77L788.4 12L718.4 57Z" fill="#dc6581" stroke="#dc6581"></path><path d="M823.7 57L788.4 12L768.1 77Z" fill="#a34e85" stroke="#a34e85"></path><path d="M900 259L892.7 190L824.4 215Z" fill="#2f346a" stroke="#2f346a"></path><path d="M807.4 600L841.7 600L819.7 554Z" fill="#dc6581" stroke="#dc6581"></path><path d="M900 259L895.7 187L892.7 190Z" fill="#2f346a" stroke="#2f346a"></path><path d="M892.7 190L900 136L824.4 215Z" fill="#a34e85" stroke="#a34e85"></path><path d="M0 514L0 600L62.3 600Z" fill="#a34e85" stroke="#a34e85"></path><path d="M0 28L0 71L29.3 60Z" fill="#77437f" stroke="#77437f"></path><path d="M29.3 60L0 71L0 124Z" fill="#603e7a" stroke="#603e7a"></path><path d="M796.4 0L792.7 0L788.4 12Z" fill="#b75485" stroke="#b75485"></path><path d="M788.4 12L792.7 0L682.1 0Z" fill="#a34e85" stroke="#a34e85"></path><path d="M682.1 0L792.7 0L523.3 -3Z" fill="#8d4883" stroke="#8d4883"></path><path d="M796.4 0L788.4 12L823.7 57Z" fill="#77437f" stroke="#77437f"></path><path d="M900 600L900 492L819.7 554Z" fill="#a34e85" stroke="#a34e85"></path><path d="M900 0L796.4 0L823.7 57Z" fill="#603e7a" stroke="#603e7a"></path><path d="M792.7 0L796.4 0L523.3 -3Z" fill="#8d4883" stroke="#8d4883"></path><path d="M182.6 0L47.3 0L97.3 12Z" fill="#102e60" stroke="#102e60"></path><path d="M97.3 12L47.3 0L29.3 60Z" fill="#2f346a" stroke="#2f346a"></path><path d="M523.3 -3L47.3 0L182.6 0Z" fill="#2f346a" stroke="#2f346a"></path><path d="M900 259L900 136L895.7 187Z" fill="#483973" stroke="#483973"></path><path d="M895.7 187L900 136L892.7 190Z" fill="#102e60" stroke="#102e60"></path><path d="M47.3 0L0 28L29.3 60Z" fill="#8d4883" stroke="#8d4883"></path><path d="M900 136L900 113L794.7 110Z" fill="#ca5c84" stroke="#ca5c84"></path><path d="M900 113L900 90L823.7 57Z" fill="#102e60" stroke="#102e60"></path><path d="M523.3 -3L0 0L47.3 0Z" fill="#b75485" stroke="#b75485"></path><path d="M47.3 0L0 0L0 28Z" fill="#2f346a" stroke="#2f346a"></path><path d="M841.7 600L900 600L819.7 554Z" fill="#ec707e" stroke="#ec707e"></path><path d="M900 90L900 0L823.7 57Z" fill="#8d4883" stroke="#8d4883"></path><path d="M796.4 0L900 0L523.3 -3Z" fill="#8d4883" stroke="#8d4883"></path></g></svg>